<?xml version="1.0" standalone="no"?>
<!DOCTYPE svg PUBLIC "-//W3C//DTD SVG 20010904//EN"
 "http://www.w3.org/TR/2001/REC-SVG-20010904/DTD/svg10.dtd">
<svg version="1.0" xmlns="http://www.w3.org/2000/svg"
 width="2084.000000pt" height="2084.000000pt" viewBox="0 0 2084.000000 2084.000000"
 preserveAspectRatio="xMidYMid meet">
<metadata>
Created by potrace 1.14, written by Peter Selinger 2001-2017
</metadata>
<g transform="translate(0.000000,2084.000000) scale(0.100000,-0.100000)"
fill="#000000" stroke="none">
<path d="M8370 17106 c-3 -2 -34 -7 -70 -10 -36 -4 -78 -9 -95 -11 -16 -2 -46
-6 -65 -9 -19 -2 -57 -8 -85 -11 -27 -4 -117 -20 -200 -37 -194 -38 -184 -36
-205 -43 -10 -3 -27 -8 -37 -10 -160 -32 -555 -162 -718 -235 -11 -5 -54 -23
-95 -41 -399 -169 -910 -493 -1225 -778 -93 -85 -331 -326 -400 -407 -97 -112
-105 -122 -155 -189 -25 -33 -48 -64 -53 -70 -175 -229 -372 -582 -486 -868
-29 -72 -98 -266 -107 -297 -80 -297 -109 -433 -129 -595 -4 -27 -8 -57 -10
-65 -11 -44 -20 -254 -20 -472 l1 -248 -41 -1 c-22 0 -47 -2 -55 -3 -8 -2 -46
-6 -85 -10 -83 -9 -108 -12 -155 -20 -19 -3 -53 -8 -75 -11 -44 -7 -309 -62
-365 -75 -118 -29 -223 -60 -360 -107 -85 -29 -162 -55 -170 -57 -36 -10 -266
-109 -279 -119 -8 -7 -15 -10 -15 -8 -1 3 -59 -24 -131 -60 -348 -172 -690
-400 -995 -663 -85 -74 -403 -400 -479 -491 -373 -450 -641 -929 -817 -1465
-35 -108 -82 -272 -90 -318 -3 -14 -7 -29 -9 -32 -2 -4 -7 -22 -10 -41 -3 -19
-12 -61 -20 -94 -15 -69 -19 -93 -45 -265 -17 -112 -19 -178 -16 -640 1 -283
5 -526 9 -540 4 -13 9 -42 12 -65 39 -280 141 -665 250 -940 67 -172 199 -449
264 -555 11 -19 24 -42 28 -50 18 -38 200 -321 235 -365 4 -5 42 -55 84 -110
244 -318 565 -635 869 -861 44 -32 82 -61 85 -64 25 -28 479 -310 498 -310 4
0 14 -6 21 -12 6 -7 15 -13 19 -14 4 0 72 -32 152 -71 374 -184 888 -348 1240
-398 14 -2 54 -8 90 -14 73 -12 119 -19 137 -20 7 -1 12 -4 12 -8 -1 -5 -1
-13 0 -18 1 -7 627 -11 1859 -12 1021 -1 1895 -4 1942 -7 132 -7 1024 -25
2015 -41 187 -3 450 -7 585 -10 966 -17 1444 -20 3165 -20 1734 0 2139 3 2475
20 52 3 140 7 195 9 363 18 545 48 850 140 358 107 810 331 1206 596 135 90
347 243 359 259 3 4 29 26 59 49 29 23 48 42 41 42 -7 0 18 23 56 52 38 29 74
57 80 63 6 5 28 24 50 40 190 149 501 451 659 639 20 25 51 60 67 78 92 103
363 485 446 628 11 19 43 76 72 125 43 72 191 369 231 460 75 173 184 474 214
595 2 8 14 49 25 90 12 41 23 83 25 93 3 10 7 27 10 37 3 10 8 27 10 38 2 11
12 62 23 113 11 52 23 110 26 129 3 19 7 44 10 55 6 32 26 166 31 210 2 22 6
63 9 90 22 191 29 330 29 540 0 173 -9 400 -18 447 -3 12 -5 38 -6 58 -1 19
-5 62 -10 95 -5 33 -11 79 -13 103 -5 38 -28 177 -41 242 -29 151 -38 189 -46
216 -5 17 -11 40 -13 50 -8 37 -45 171 -71 254 -14 47 -28 92 -30 100 -4 17
-48 138 -95 260 -18 47 -48 118 -66 158 -19 40 -34 75 -34 78 0 8 -153 313
-186 370 -173 302 -347 554 -565 814 -111 134 -419 448 -534 546 -38 32 -72
61 -75 64 -15 17 -221 177 -315 246 -135 98 -310 214 -323 214 -5 0 -15 6 -21
14 -7 8 -26 21 -44 30 -18 9 -50 27 -72 40 -85 52 -336 181 -440 228 -33 14
-87 38 -120 53 -205 93 -524 200 -805 270 -96 25 -193 47 -215 51 -22 3 -44 7
-50 8 -75 16 -126 26 -155 31 -19 2 -64 9 -100 15 -77 12 -126 18 -200 26 -30
3 -69 7 -86 9 -106 13 -284 19 -524 19 -275 0 -430 -8 -600 -29 -73 -9 -126
-16 -150 -20 -27 -4 -97 -14 -145 -21 -295 -44 -670 -147 -1068 -294 -32 -12
-60 -20 -61 -18 -2 2 -45 120 -118 329 -7 21 -14 25 -34 21 -14 -2 -24 -1 -23
4 12 47 -149 461 -272 702 -296 580 -695 1046 -1255 1470 -87 65 -340 233
-414 274 -25 14 -65 37 -90 52 -91 53 -409 206 -535 256 -221 88 -492 180
-584 197 -13 2 -32 8 -43 14 -10 5 -18 8 -18 5 0 -3 -15 0 -32 5 -18 6 -44 12
-58 15 -14 3 -33 7 -42 10 -9 3 -25 6 -35 8 -10 2 -53 11 -95 20 -42 9 -94 18
-115 21 -21 3 -49 8 -63 11 -14 3 -43 8 -65 10 -22 2 -49 6 -61 9 -11 2 -45 7
-75 11 -30 3 -65 8 -79 12 -29 6 -1054 15 -1060 8z"/>
</g>
</svg>
